<svg
  xmlns="http://www.w3.org/2000/svg"
  xmlns:xlink="http://www.w3.org/1999/xlink"
  width="128"
  height="128"
  viewBox="0 0 33.867 33.867"
  class="logo"
>
  <defs>
    <linearGradient id="logo_svg__a">
      <stop offset="0" stop-color="#FFF"></stop>
      <stop offset="1" stop-color="#FFF"></stop>
    </linearGradient>
    <linearGradient
      xlink:href="#logo_svg__a"
      id="logo_svg__b"
      x1="32.287"
      y1="30.764"
      x2="1.699"
      y2="1.698"
      gradientUnits="userSpaceOnUse"
    ></linearGradient>
    <linearGradient
      xlink:href="#logo_svg__a"
      id="logo_svg__c"
      gradientUnits="userSpaceOnUse"
      x1="28.979"
      y1="29.441"
      x2="11.025"
      y2="-0.485"
    ></linearGradient>
    <linearGradient
      xlink:href="#logo_svg__a"
      id="logo_svg__d"
      gradientUnits="userSpaceOnUse"
      x1="28.979"
      y1="29.441"
      x2="11.025"
      y2="-0.485"
    ></linearGradient>
    <linearGradient
      xlink:href="#logo_svg__a"
      id="logo_svg__e"
      gradientUnits="userSpaceOnUse"
      x1="28.979"
      y1="29.441"
      x2="11.025"
      y2="-0.485"
    ></linearGradient>
    <linearGradient
      xlink:href="#logo_svg__a"
      id="logo_svg__f"
      gradientUnits="userSpaceOnUse"
      x1="28.979"
      y1="29.441"
      x2="11.025"
      y2="-0.485"
    ></linearGradient>
  </defs>
  <g
    transform="translate(-2.552 2.192)"
    stroke="url(#logo_svg__c)"
    fill="none"
    stroke-linecap="round"
  >
    <path
      d="M28.298 10.803c-.817 3.032-5.994 9.551-9.927 8.49-3.933-1.06-5.236-8.914-4.315-12.329 1.222-4.532 5.4-7.347 9.333-6.287 3.933 1.06 6.13 5.594 4.909 10.126z"
      stroke="url(#logo_svg__d)"
      stroke-width="1.5"
      stroke-linejoin="round"
    ></path>
    <path
      d="M18.161 19.567c-.265.162-.529.36-.72.609-.13.172-.218.351-.32.54-.149.348-.302.736-.312 1.12-.005.183.034.33.07.505.12.45.447.72.742 1.052.052.059.1.122.149.183.078.123.264.38.26.534-.007.289-.298.456-.497.597-.706.335-1.489.418-2.25.55-.634.11-1.296.239-1.809.658-.064.053-.11.124-.165.187-.035.075-.08.146-.106.225-.138.417-.018.992.043 1.421.016.108.062.304.021.419-.116.328-.586.378-.854.433-.232.047-.467.074-.7.11-.718.096-1.44.135-2.162.167l-.094.07v0a26.108 26.108 0 002.163-.167c.312-.048.922-.12 1.241-.245.21-.083.443-.195.52-.425.04-.116-.007-.312-.023-.42-.062-.428-.182-1-.04-1.415.027-.078.072-.148.108-.222.073-.082.18-.219.284-.28.448-.266.972-.35 1.476-.442l.415-.072.41-.072c.583-.101 1.12-.213 1.637-.526.206-.148.49-.316.495-.612.002-.158-.184-.413-.264-.538-.05-.061-.098-.125-.15-.184-.293-.33-.619-.597-.739-1.046-.036-.176-.074-.317-.068-.5.011-.388.163-.765.313-1.116.106-.195.186-.36.323-.538.09-.116.228-.24.34-.337.163-.14.128-.065.161-.141l.102-.082z"
      stroke="url(#logo_svg__e)"
      stroke-linejoin="round"
    ></path>
    <path
      d="M21.48 2.005s-2.9.561-4.723 3.742c-1.824 3.18-.655 7.717-.655 7.717"
      stroke="url(#logo_svg__f)"
    ></path>
  </g>
</svg>
